<?xml version="1.0" encoding="utf-8"?>
<!-- Generator: Adobe Illustrator 19.0.0, SVG Export Plug-In . SVG Version: 6.00 Build 0)  -->
<svg version="1.1" id="Layer_1" xmlns="http://www.w3.org/2000/svg" xmlns:xlink="http://www.w3.org/1999/xlink" x="0px" y="0px"
	 viewBox="47 -48 120 120" style="enable-background:new 47 -48 120 120;" xml:space="preserve">
<style type="text/css">
	.st0{fill:#FFFFFF;}
</style>
<path class="st0" d="M131.2-5.7V-15c0-1.9-1.6-3.4-3.4-3.4c-1.9,0-3.4,1.6-3.4,3.4v8H89.7v-8c0-1.9-1.6-3.4-3.4-3.4
	c-1.9,0-3.4,1.6-3.4,3.4v9.2c-7.2,2.6-12.2,9.4-12.2,17.3V24c0,10.1,8.3,18.4,18.4,18.4h35.7c10.1,0,18.4-8.3,18.4-18.4V11.6
	C143.4,3.7,138.3-3.2,131.2-5.7z M85.6,23c-2.7,0-5.1-2.3-5.1-5.1s2.3-5.1,5.1-5.1c2.7,0,5.1,2.3,5.1,5.1C90.4,20.7,88.4,23,85.6,23
	z M108.1,30h-2.3c-3.9,0-6.9-3.3-6.9-7c0-1.4,0.9-2.3,2.3-2.3h11.5c1.4,0,2.3,0.9,2.3,2.3C115.1,26.7,112.1,30,108.1,30z M128.4,23
	c-2.7,0-5.1-2.3-5.1-5.1s2.3-5.1,5.1-5.1c2.7,0,5.1,2.3,5.1,5.1S131.2,23,128.4,23z"/>
</svg>
