<?xml version="1.0" encoding="utf-8"?>
<!-- Generator: Adobe Illustrator 21.0.0, SVG Export Plug-In . SVG Version: 6.00 Build 0)  -->
<svg version="1.1" id="Layer_1" xmlns="http://www.w3.org/2000/svg" xmlns:xlink="http://www.w3.org/1999/xlink" x="0px" y="0px"
	 viewBox="0 0 100 100" style="enable-background:new 0 0 100 100;" xml:space="preserve">
<style type="text/css">
	.st0{fill:#FFFFFF;}
</style>
<path class="st0" d="M37.5,18.1c2.3-0.9,1.7-6.4,1.7-6.4C39.2,7.4,42.6,4,47,4c4.2,0,7.6,3.4,7.6,7.6s-3.4,7.7-7.6,7.7
	c-1.4,0-2.7-0.6-3.8-1.2C40,18.4,36.1,18.6,37.5,18.1z"/>
<path class="st0" d="M67.8,44.4c0-6.1-4.3-11.1-10.1-12.1c-1.9-6.3-5.1-10.9-10.3-10.9c-7.1,0-7.4,2.4-9.2,6.3l0,0l0,0
	c-2,4-6,27-6,27c-0.3,1.3,0.6,2.7,1.8,2.9c0.2,0,0.4,0.1,0.6,0.1c1.1,0,2.1-0.7,2.4-1.9l5.4-22.8l-2.6,32.4h4l1.6,28.9
	c0,1,0.8,1.8,1.8,1.8s1.8-0.8,1.8-1.8l1.6-28.9h9.8c0,0,0.3-4,0.2-9.7C64.9,53.6,67.8,49.4,67.8,44.4z M59.2,48.9
	c0,0-5.3-2.9-5.3-6.2c0-1.6,1.3-2.9,2.9-2.9c1.3,0,2.2,0.9,2.5,2.1c0.4-1.2,1.3-2.1,2.5-2.1c1.6,0,2.9,1.3,2.9,2.9
	C64.5,46,59.2,48.9,59.2,48.9z"/>
</svg>
