<?xml version="1.0" encoding="utf-8"?>
<!-- Generator: Adobe Illustrator 19.0.0, SVG Export Plug-In . SVG Version: 6.00 Build 0)  -->
<svg version="1.1" id="Layer_1" xmlns="http://www.w3.org/2000/svg" xmlns:xlink="http://www.w3.org/1999/xlink" x="0px" y="0px"
	 viewBox="-469 271 20 20" style="enable-background:new -469 271 20 20;" xml:space="preserve">
<style type="text/css">
	.st0{fill:#FFFFFF;}
</style>
<g>
	<path class="st0" d="M-451,276.4c0.8,1.4,1.2,3,1.2,4.6c0,1.7-0.4,3.2-1.2,4.6c-0.8,1.4-1.9,2.5-3.4,3.4c-1.4,0.8-3,1.2-4.6,1.2
		s-3.2-0.4-4.6-1.2s-2.5-1.9-3.4-3.4c-0.8-1.4-1.2-3-1.2-4.6s0.4-3.2,1.2-4.6c0.8-1.4,1.9-2.5,3.4-3.4s3-1.2,4.6-1.2
		s3.2,0.4,4.6,1.2C-452.9,273.8-451.8,274.9-451,276.4z M-458.1,281c-0.2-0.4-0.4-0.8-0.6-1.3c-2.5,0.7-5.2,1.1-8.1,1.1
		c0,0.1,0,0.1,0,0.3c0,1,0.2,1.9,0.5,2.8c0.4,0.9,0.9,1.7,1.5,2.4c0.4-0.7,0.9-1.4,1.5-2c0.6-0.6,1.2-1.1,1.7-1.5
		c0.6-0.4,1.1-0.7,1.6-1c0.5-0.3,0.9-0.5,1.2-0.6l0.4-0.2c0,0,0.1,0,0.2,0C-458.2,281-458.2,281-458.1,281z M-459.4,278.4
		c-1-1.7-1.9-3.2-2.9-4.6c-1.1,0.5-2,1.3-2.8,2.2c-0.8,1-1.3,2.1-1.5,3.3C-464.3,279.4-461.9,279.1-459.4,278.4z M-455.9,288.3
		c-0.3-1.9-0.9-3.9-1.7-6h0l0,0c-0.1,0-0.3,0.1-0.5,0.2c-0.2,0.1-0.6,0.3-1.2,0.6c-0.6,0.3-1.1,0.6-1.6,1c-0.5,0.3-1,0.8-1.6,1.4
		c-0.5,0.6-1,1.2-1.2,1.8l-0.2-0.1c1.5,1.2,3.2,1.8,5,1.8C-457.9,288.9-456.9,288.7-455.9,288.3z M-460.9,273.3
		C-460.9,273.3-460.9,273.3-460.9,273.3C-460.9,273.3-460.9,273.3-460.9,273.3z M-453.8,275.1c-1.5-1.3-3.2-2-5.2-2
		c-0.6,0-1.2,0.1-1.9,0.2c1.1,1.4,2,2.9,3,4.6c0.6-0.2,1.1-0.5,1.6-0.7c0.5-0.3,0.9-0.5,1.2-0.7c0.3-0.2,0.5-0.4,0.8-0.7
		c0.2-0.2,0.4-0.4,0.5-0.5C-453.9,275.2-453.8,275.1-453.8,275.1z M-451.1,280.9c0-1.9-0.6-3.5-1.8-4.9l0,0
		c-0.1,0.1-0.2,0.2-0.2,0.3c-0.1,0.1-0.3,0.3-0.5,0.5c-0.3,0.3-0.6,0.5-0.9,0.7c-0.3,0.2-0.7,0.5-1.2,0.8c-0.5,0.3-1,0.6-1.6,0.8
		c0.2,0.4,0.4,0.8,0.5,1.1c0,0,0,0.1,0.1,0.2c0,0.1,0.1,0.2,0.1,0.2c0.3,0,0.6-0.1,0.9-0.1c0.3,0,0.6,0,0.9,0c0.3,0,0.6,0,0.8,0
		c0.3,0,0.5,0,0.8,0c0.2,0,0.5,0,0.7,0.1c0.2,0,0.4,0.1,0.6,0.1c0.2,0,0.3,0.1,0.4,0.1c0.1,0,0.2,0,0.3,0.1L-451.1,280.9z
		 M-451.2,282.3c-1.7-0.5-3.3-0.6-4.9-0.3c0.7,1.9,1.2,3.8,1.5,5.6c0.9-0.6,1.6-1.4,2.2-2.3C-451.8,284.4-451.4,283.3-451.2,282.3z"
		/>
</g>
</svg>
