<?xml version="1.0" encoding="utf-8"?>
<!-- Generator: Adobe Illustrator 19.0.0, SVG Export Plug-In . SVG Version: 6.00 Build 0)  -->
<svg version="1.1" id="Layer_1" xmlns="http://www.w3.org/2000/svg" xmlns:xlink="http://www.w3.org/1999/xlink" x="0px" y="0px"
	 viewBox="-469 271 20 20" style="enable-background:new -469 271 20 20;" xml:space="preserve">
<style type="text/css">
	.st0{fill:#FFFFFF;}
</style>
<path class="st0" d="M-449.2,281.2c0,2.1-0.6,4.1-1.9,5.8c-1.2,1.7-2.9,2.9-4.8,3.5c-0.2,0-0.4,0-0.5-0.1c-0.1-0.1-0.2-0.2-0.2-0.4
	v-2.7c0-0.8-0.2-1.4-0.7-1.8c0.5-0.1,0.9-0.1,1.3-0.2c0.4-0.1,0.8-0.3,1.2-0.5c0.4-0.2,0.8-0.5,1-0.8c0.3-0.3,0.5-0.8,0.7-1.3
	c0.2-0.6,0.3-1.2,0.3-1.9c0-1-0.3-1.9-1-2.6c0.3-0.8,0.3-1.6-0.1-2.6c-0.2-0.1-0.6,0-1,0.1c-0.5,0.2-0.8,0.4-1.2,0.6l-0.5,0.3
	c-0.8-0.2-1.6-0.3-2.5-0.3s-1.7,0.1-2.5,0.3c-0.1-0.1-0.3-0.2-0.5-0.3c-0.2-0.1-0.6-0.3-1.1-0.5c-0.5-0.2-0.9-0.3-1.1-0.2
	c-0.4,1-0.4,1.8-0.1,2.6c-0.7,0.7-1,1.6-1,2.6c0,0.7,0.1,1.4,0.3,1.9c0.2,0.6,0.4,1,0.7,1.3c0.3,0.3,0.6,0.6,1,0.9
	c0.4,0.2,0.8,0.4,1.2,0.5c0.4,0.1,0.8,0.2,1.3,0.2c-0.3,0.3-0.6,0.7-0.6,1.3c-0.2,0.1-0.4,0.1-0.6,0.2c-0.2,0-0.4,0.1-0.7,0.1
	c-0.3,0-0.6-0.1-0.8-0.3c-0.3-0.2-0.5-0.5-0.7-0.8c-0.2-0.3-0.4-0.5-0.6-0.7c-0.3-0.2-0.5-0.3-0.6-0.3l-0.3,0c-0.2,0-0.3,0-0.4,0.1
	c-0.1,0-0.1,0.1-0.1,0.1c0,0.1,0.1,0.1,0.1,0.2c0.1,0.1,0.1,0.1,0.2,0.2l0.1,0.1c0.2,0.1,0.4,0.2,0.6,0.5c0.2,0.2,0.3,0.5,0.4,0.7
	l0.1,0.3c0.1,0.3,0.3,0.6,0.6,0.8c0.3,0.2,0.5,0.3,0.9,0.4c0.3,0.1,0.6,0.1,0.9,0.1c0.3,0,0.5,0,0.7,0l0.3-0.1c0,0.3,0,0.7,0,1.1
	c0,0.4,0,0.7,0,0.7c0,0.2-0.1,0.3-0.2,0.4c-0.1,0.1-0.3,0.1-0.5,0.1c-2-0.7-3.6-1.8-4.8-3.5c-1.2-1.7-1.9-3.6-1.9-5.8
	c0-1.8,0.4-3.4,1.3-4.9c0.9-1.5,2.1-2.7,3.6-3.6c1.5-0.9,3.1-1.3,4.9-1.3c1.8,0,3.4,0.4,4.9,1.3c1.5,0.9,2.7,2.1,3.6,3.6
	C-449.6,277.8-449.2,279.5-449.2,281.2z"/>
</svg>
