<?xml version="1.0" encoding="utf-8"?>
<!-- Generator: Adobe Illustrator 21.0.0, SVG Export Plug-In . SVG Version: 6.00 Build 0)  -->
<svg version="1.1" id="Layer_1" xmlns="http://www.w3.org/2000/svg" xmlns:xlink="http://www.w3.org/1999/xlink" x="0px" y="0px"
	 viewBox="0 0 20 20" style="enable-background:new 0 0 20 20;" xml:space="preserve">
<style type="text/css">
	.st0{fill:#FFFFFF;}
</style>
<g>
	<path class="st0" d="M19.7,6c0,0.8,0,2.2,0,4s0,3.2-0.1,4.1c0,0.8-0.2,1.5-0.4,2.2c-0.3,0.7-0.7,1.4-1.2,1.9
		c-0.5,0.5-1.2,0.9-1.9,1.2c-0.6,0.2-1.3,0.3-2.2,0.4c-0.8,0-2.2,0.1-4.1,0.1s-3.2,0-4.1-0.1c-0.8,0-1.5-0.2-2.2-0.4
		c-0.7-0.2-1.4-0.6-1.9-1.2c-0.5-0.5-0.9-1.2-1.2-1.9c-0.2-0.6-0.3-1.3-0.4-2.2S0.3,11.9,0.3,10s0-3.2,0.1-4.1s0.2-1.5,0.4-2.2
		c0.3-0.7,0.7-1.4,1.2-1.9s1.2-0.9,1.9-1.2c0.6-0.2,1.3-0.3,2.2-0.4S8.1,0.3,10,0.3s3.2,0,4.1,0.1s1.5,0.2,2.2,0.4
		c0.7,0.3,1.4,0.7,1.9,1.2c0.5,0.5,0.9,1.2,1.2,1.9C19.5,4.4,19.6,5.1,19.7,6z M17.6,15.7c0.2-0.5,0.3-1.3,0.3-2.4
		c0-0.6,0-1.5,0-2.7V9.3c0-1.2,0-2.1,0-2.7c-0.1-1.1-0.2-1.9-0.3-2.4c-0.3-0.9-1-1.5-1.9-1.9c-0.5-0.2-1.2-0.3-2.4-0.3
		c-0.6,0-1.5,0-2.7,0H9.3C8.1,2,7.2,2,6.6,2C5.5,2.1,4.7,2.2,4.3,2.4c-0.9,0.3-1.5,1-1.9,1.9C2.2,4.7,2.1,5.5,2,6.6
		c0,0.6,0,1.5,0,2.7v1.4c0,1.2,0,2.1,0,2.7c0.1,1.1,0.2,1.9,0.3,2.4c0.4,0.9,1,1.5,1.9,1.9c0.5,0.2,1.3,0.3,2.4,0.3
		c0.6,0,1.5,0,2.7,0h1.4c1.2,0,2.1,0,2.7,0c1.1-0.1,1.9-0.2,2.4-0.3C16.6,17.2,17.3,16.6,17.6,15.7z M10,5c0.9,0,1.7,0.2,2.5,0.7
		c0.8,0.4,1.4,1.1,1.8,1.8S15,9.1,15,10s-0.2,1.7-0.7,2.5s-1.1,1.4-1.8,1.8S10.9,15,10,15s-1.7-0.2-2.5-0.7s-1.4-1.1-1.8-1.8
		C5.2,11.7,5,10.9,5,10s0.2-1.7,0.7-2.5c0.4-0.8,1.1-1.4,1.8-1.8C8.3,5.2,9.1,5,10,5z M10,13.3c0.9,0,1.7-0.3,2.3-1
		c0.6-0.6,1-1.4,1-2.3s-0.3-1.7-1-2.3c-0.6-0.6-1.4-1-2.3-1s-1.7,0.3-2.3,1s-1,1.4-1,2.3s0.3,1.7,1,2.3C8.3,12.9,9.1,13.3,10,13.3z
		 M16.4,4.8c0-0.3-0.1-0.6-0.3-0.8c-0.2-0.2-0.5-0.3-0.8-0.3s-0.6,0.1-0.8,0.3C14.2,4.2,14,4.5,14,4.8c0,0.3,0.1,0.6,0.3,0.8
		C14.6,5.8,14.9,6,15.2,6s0.6-0.1,0.8-0.3C16.2,5.4,16.4,5.1,16.4,4.8z"/>
</g>
</svg>
