<?xml version="1.0" encoding="utf-8"?>
<!-- Generator: Adobe Illustrator 19.0.0, SVG Export Plug-In . SVG Version: 6.00 Build 0)  -->
<svg version="1.1" id="Layer_1" xmlns="http://www.w3.org/2000/svg" xmlns:xlink="http://www.w3.org/1999/xlink" x="0px" y="0px"
	 viewBox="-469 271 20 20" style="enable-background:new -469 271 20 20;" xml:space="preserve">
<style type="text/css">
	.st0{fill:#FFFFFF;}
</style>
<path class="st0" d="M-463.1,275.2c0,0.5-0.2,0.9-0.5,1.3c-0.4,0.3-0.8,0.5-1.4,0.5h0c-0.6,0-1-0.2-1.4-0.5
	c-0.3-0.3-0.5-0.8-0.5-1.3c0-0.5,0.2-0.9,0.5-1.3c0.4-0.3,0.8-0.5,1.4-0.5s1,0.2,1.4,0.5C-463.3,274.3-463.1,274.7-463.1,275.2z
	 M-463.3,278.4v10.2h-3.4v-10.2H-463.3z M-451.1,282.7v5.8h-3.4v-5.4c0-0.7-0.1-1.3-0.4-1.7c-0.3-0.4-0.7-0.6-1.3-0.6
	c-0.4,0-0.8,0.1-1.1,0.4c-0.3,0.2-0.5,0.5-0.7,0.9c-0.1,0.2-0.1,0.5-0.1,0.8v5.7h-3.4c0-2.7,0-4.9,0-6.6c0-1.7,0-2.7,0-3l0-0.5h3.4
	v1.5h0c0.1-0.2,0.3-0.4,0.4-0.6c0.1-0.2,0.3-0.3,0.6-0.5c0.2-0.2,0.5-0.3,0.9-0.4c0.4-0.1,0.7-0.2,1.2-0.2c1.2,0,2.1,0.4,2.8,1.2
	S-451.1,281.2-451.1,282.7z"/>
</svg>
