<?xml version="1.0" encoding="utf-8"?>
<!-- Generator: Adobe Illustrator 16.0.4, SVG Export Plug-In . SVG Version: 6.00 Build 0)  -->
<!DOCTYPE svg PUBLIC "-//W3C//DTD SVG 1.1//EN" "http://www.w3.org/Graphics/SVG/1.1/DTD/svg11.dtd">
<svg version="1.1" id="Layer_1" xmlns="http://www.w3.org/2000/svg" xmlns:xlink="http://www.w3.org/1999/xlink" x="0px" y="0px"
	 width="100px" height="50.486px" viewBox="-156.008 111.272 100 50.486" enable-background="new -156.008 111.272 100 50.486"
	 xml:space="preserve">
<g display="none">
	
		<rect x="-304.727" y="-209.85" display="inline" stroke="#000000" stroke-width="2" stroke-miterlimit="10" width="661.355" height="525.691"/>
</g>
<path fill="#FFFFFF" d="M-58.031,128.074c0-0.267,0-0.538-0.268-0.809c-0.269-1.607-0.806-2.952-1.88-4.297
	c-3.223-4.562-8.325-6.175-17.456-5.101c-6.177,0.538-14.502,4.025-22.559,7.249c-3.762,1.616-7.522,2.957-10.476,4.03
	c-8.594,2.957-20.142-5.371-20.142-5.371c-0.806-0.537-0.806-0.808-0.806-1.074c0-1.611,4.028-4.562,7.788-6.445
	c0.537-0.267,0.805-0.809,0.805-1.34c0-0.542-0.269-1.074-0.805-1.346c-8.863-4.297-16.113,2.419-19.067,6.982
	c-4.834,0.809-8.057,2.686-9.937,5.908c-2.686,4.834-0.537,10.472-0.537,10.742c0.269,0.537,0.537,0.804,1.074,0.804
	s0.806,0,1.342-0.532c6.177-6.987,9.668-8.062,11.28-8.062c0.806,0,1.343,0.271,1.343,0.271
	c8.325,15.311,18.798,20.41,27.393,22.287c0.805,2.691,1.611,5.643,2.148,7.791c0,0.537,0.537,0.804,0.808,1.074
	c0.266,0,0.266,0,0.537,0c0.266,0,0.537,0,0.803-0.271c3.223-2.415,5.374-4.83,6.716-7.249c0.269,0,0.537,0,0.806,0
	c2.148,0.271,4.297,0.271,6.445,0.271c2.954,0,6.177-0.271,9.131-0.542c0.269,1.345,1.074,4.567,1.343,6.445
	c0,0.542,0.269,0.808,0.806,1.074c0.269,0,0.537,0.271,0.537,0.271c0.269,0,0.537,0,0.806-0.271c0.269-0.267,6.714-4.026,7.52-9.935
	c6.982-2.685,9.937-6.179,12.622-11.551C-58.031,135.593-57.493,131.562-58.031,128.074z M-91.331,129.955
	c1.186,0,2.148,0.958,2.148,2.149c0,1.18-0.963,2.148-2.148,2.148c-1.188,0-2.148-0.969-2.148-2.148
	C-93.479,130.913-92.519,129.955-91.331,129.955z M-62.327,138.008c-2.149,4.567-4.565,7.519-10.474,9.939
	c-0.268,0-0.537,0.27-0.805,0.27c-0.537,0.267-1.074,0.532-1.88,0.532c-1.343,0.542-2.954,0.809-4.834,1.075
	c-1.074,0.271-1.88,0.271-2.954,0.542c-5.103,0.803-10.474,0.803-15.308,0.266c1.611-3.76,1.611-6.982,1.343-9.131
	c8.862,1.611,10.474,0.803,13.16-4.297c0.537-0.804,1.074-2.148,1.879-3.223c4.028-5.907,17.188-5.643,20.947-5.101
	C-60.447,131.834-60.984,135.056-62.327,138.008z"/>
</svg>
