<?xml version="1.0" encoding="utf-8"?>
<!-- Generator: Adobe Illustrator 19.0.0, SVG Export Plug-In . SVG Version: 6.00 Build 0)  -->
<svg version="1.1" id="Layer_1" xmlns="http://www.w3.org/2000/svg" xmlns:xlink="http://www.w3.org/1999/xlink" x="0px" y="0px"
	 viewBox="-38.6 -22 100 100" style="enable-background:new -38.6 -22 100 100;" xml:space="preserve">
<style type="text/css">
	.st0{fill:#FFFFFF;}
</style>
<path class="st0" d="M-2.2-6.7c2.5-1,1.9-7,1.9-7c0-4.6,3.7-8.3,8.4-8.3c4.6,0,8.3,3.7,8.3,8.3c0,4.6-3.7,8.4-8.3,8.4
	C6.6-5.3,5.2-5.9,4-6.6C0.5-6.3-3.7-6.1-2.2-6.7z"/>
<path class="st0" d="M30.8,21.9c0-6.6-4.7-12.1-11-13.2C17.7,1.9,14.3-3.2,8.6-3.2c-7.7,0-8,2.6-10,6.8c0,0,0,0,0,0v0
	C-3.6,8-7.9,33-7.9,33c-0.3,1.4,0.6,2.9,2,3.2c0.2,0,0.4,0.1,0.6,0.1c1.2,0,2.3-0.8,2.6-2.1L3.2,9.4L0.4,44.6h4.4L6.5,76
	c0,1.1,0.9,2,2,2c1.1,0,2-0.9,2-2l1.7-31.4h10.6c0,0,0.3-4.4,0.2-10.5C27.6,31.9,30.8,27.3,30.8,21.9z M21.4,26.8
	c0,0-5.8-3.2-5.8-6.7c0-1.7,1.4-3.1,3.1-3.1c1.4,0,2.4,1,2.7,2.3c0.4-1.3,1.4-2.3,2.7-2.3c1.7,0,3.1,1.4,3.1,3.1
	C27.2,23.7,21.4,26.8,21.4,26.8z"/>
</svg>
