<?xml version="1.0" encoding="utf-8"?>
<!-- Generator: Adobe Illustrator 19.0.0, SVG Export Plug-In . SVG Version: 6.00 Build 0)  -->
<svg version="1.1" id="Layer_1" xmlns="http://www.w3.org/2000/svg" xmlns:xlink="http://www.w3.org/1999/xlink" x="0px" y="0px"
	 viewBox="-469 271 20 20" style="enable-background:new -469 271 20 20;" xml:space="preserve">
<style type="text/css">
	.st0{fill:#FFFFFF;}
</style>
<path class="st0" d="M-453.9,282.8v7.7l0,0.4v0h-12.5l-0.4,0h0v-8.1h1.3v6.8h10.2v-6.8L-453.9,282.8L-453.9,282.8z M-456.5,286.6
	v1.7l-7.8,0v-1.7L-456.5,286.6z M-464.1,283.7l7.8,0.7l-0.1,1.7l-7.8-0.7L-464.1,283.7z M-463.3,280.2l7.5,2l-0.4,1.6l-7.5-2
	L-463.3,280.2z M-461.5,276.4l6.7,4l-0.8,1.4l-6.7-4L-461.5,276.4z M-457.6,272.7l4.4,6.4l-1.4,0.9l-4.4-6.4L-457.6,272.7z
	 M-452.6,271.1l1.3,7.7l-1.6,0.3l-1.3-7.7L-452.6,271.1z"/>
</svg>
